<mxfile host="Electron" modified="2023-09-15T13:56:41.233Z" agent="Mozilla/5.0 (Windows NT 10.0; Win64; x64) AppleWebKit/537.36 (KHTML, like Gecko) draw.io/21.6.1 Chrome/112.0.5615.204 Electron/24.6.1 Safari/537.36" etag="rjOY-ACcfxU7u-Ds1wN4" version="21.6.1" type="device">
  <diagram name="Page-1" id="SDdgka3PywcGcHc0HapG">
    <mxGraphModel dx="781" dy="2837" grid="1" gridSize="10" guides="1" tooltips="1" connect="1" arrows="1" fold="1" page="1" pageScale="1" pageWidth="3300" pageHeight="2339" math="0" shadow="0">
      <root>
        <mxCell id="0" />
        <mxCell id="1" parent="0" />
        <mxCell id="kLNVyJrnfXW6X7ckvjcb-1" value="&lt;font style=&quot;font-size: 28px;&quot;&gt;State&lt;/font&gt;" style="rounded=0;whiteSpace=wrap;html=1;fillColor=#1ba1e2;fontColor=#ffffff;strokeColor=#006EAF;" parent="1" vertex="1">
          <mxGeometry x="630" y="-2240" width="120" height="60" as="geometry" />
        </mxCell>
        <mxCell id="kLNVyJrnfXW6X7ckvjcb-2" value="&lt;font style=&quot;font-size: 28px;&quot;&gt;SubState 1&lt;/font&gt;" style="rounded=0;whiteSpace=wrap;html=1;" parent="1" vertex="1">
          <mxGeometry x="330" y="-1960" width="150" height="60" as="geometry" />
        </mxCell>
        <mxCell id="kLNVyJrnfXW6X7ckvjcb-5" value="" style="endArrow=classic;html=1;rounded=0;entryX=0.5;entryY=0;entryDx=0;entryDy=0;exitX=0.45;exitY=1.017;exitDx=0;exitDy=0;exitPerimeter=0;" parent="1" source="kLNVyJrnfXW6X7ckvjcb-1" target="kLNVyJrnfXW6X7ckvjcb-2" edge="1">
          <mxGeometry width="50" height="50" relative="1" as="geometry">
            <mxPoint x="700" y="-2000" as="sourcePoint" />
            <mxPoint x="750" y="-2050" as="targetPoint" />
          </mxGeometry>
        </mxCell>
        <mxCell id="kLNVyJrnfXW6X7ckvjcb-6" value="" style="endArrow=classic;html=1;rounded=0;entryX=0.5;entryY=0;entryDx=0;entryDy=0;exitX=0.5;exitY=1;exitDx=0;exitDy=0;" parent="1" source="kLNVyJrnfXW6X7ckvjcb-1" edge="1">
          <mxGeometry width="50" height="50" relative="1" as="geometry">
            <mxPoint x="694" y="-2169" as="sourcePoint" />
            <mxPoint x="690" y="-1970" as="targetPoint" />
          </mxGeometry>
        </mxCell>
        <mxCell id="kLNVyJrnfXW6X7ckvjcb-7" value="" style="endArrow=classic;html=1;rounded=0;entryX=0.5;entryY=0;entryDx=0;entryDy=0;exitX=0.5;exitY=1;exitDx=0;exitDy=0;" parent="1" source="kLNVyJrnfXW6X7ckvjcb-1" edge="1">
          <mxGeometry width="50" height="50" relative="1" as="geometry">
            <mxPoint x="700" y="-2180" as="sourcePoint" />
            <mxPoint x="940" y="-1970" as="targetPoint" />
          </mxGeometry>
        </mxCell>
        <mxCell id="kLNVyJrnfXW6X7ckvjcb-8" value="&lt;font style=&quot;font-size: 28px;&quot;&gt;SubState 1&lt;/font&gt;" style="rounded=0;whiteSpace=wrap;html=1;fillColor=#0050ef;strokeColor=#001DBC;fontColor=#ffffff;" parent="1" vertex="1">
          <mxGeometry x="330" y="-1960" width="150" height="60" as="geometry" />
        </mxCell>
        <mxCell id="kLNVyJrnfXW6X7ckvjcb-9" value="&lt;font style=&quot;font-size: 28px;&quot;&gt;SubState 2&lt;/font&gt;" style="rounded=0;whiteSpace=wrap;html=1;fillColor=#0050ef;fontColor=#ffffff;strokeColor=#001DBC;" parent="1" vertex="1">
          <mxGeometry x="615" y="-1960" width="150" height="60" as="geometry" />
        </mxCell>
        <mxCell id="kLNVyJrnfXW6X7ckvjcb-10" value="&lt;font style=&quot;font-size: 28px;&quot;&gt;SubState 3&lt;/font&gt;" style="rounded=0;whiteSpace=wrap;html=1;fillColor=#0050ef;fontColor=#ffffff;strokeColor=#001DBC;" parent="1" vertex="1">
          <mxGeometry x="870" y="-1960" width="150" height="60" as="geometry" />
        </mxCell>
        <mxCell id="kLNVyJrnfXW6X7ckvjcb-11" value="&lt;font style=&quot;font-size: 28px;&quot;&gt;Slice 1&lt;/font&gt;" style="rounded=0;whiteSpace=wrap;html=1;fillColor=#d80073;strokeColor=#A50040;fontColor=#ffffff;" parent="1" vertex="1">
          <mxGeometry x="330" y="-1810" width="150" height="60" as="geometry" />
        </mxCell>
        <mxCell id="kLNVyJrnfXW6X7ckvjcb-12" value="&lt;font style=&quot;font-size: 28px;&quot;&gt;Slice 2&lt;/font&gt;" style="rounded=0;whiteSpace=wrap;html=1;fillColor=#d80073;strokeColor=#A50040;fontColor=#ffffff;" parent="1" vertex="1">
          <mxGeometry x="610" y="-1810" width="150" height="60" as="geometry" />
        </mxCell>
        <mxCell id="kLNVyJrnfXW6X7ckvjcb-13" value="&lt;font style=&quot;font-size: 28px;&quot;&gt;Slice 3&lt;/font&gt;" style="rounded=0;whiteSpace=wrap;html=1;fillColor=#d80073;strokeColor=#A50040;fontColor=#ffffff;" parent="1" vertex="1">
          <mxGeometry x="860" y="-1810" width="150" height="60" as="geometry" />
        </mxCell>
        <mxCell id="kLNVyJrnfXW6X7ckvjcb-14" value="" style="endArrow=classic;html=1;rounded=0;exitX=0.5;exitY=1;exitDx=0;exitDy=0;entryX=0.5;entryY=0;entryDx=0;entryDy=0;" parent="1" source="kLNVyJrnfXW6X7ckvjcb-8" target="kLNVyJrnfXW6X7ckvjcb-11" edge="1">
          <mxGeometry width="50" height="50" relative="1" as="geometry">
            <mxPoint x="700" y="-1800" as="sourcePoint" />
            <mxPoint x="520" y="-1830" as="targetPoint" />
          </mxGeometry>
        </mxCell>
        <mxCell id="kLNVyJrnfXW6X7ckvjcb-15" value="" style="endArrow=classic;html=1;rounded=0;exitX=0.5;exitY=1;exitDx=0;exitDy=0;entryX=0.5;entryY=0;entryDx=0;entryDy=0;" parent="1" edge="1">
          <mxGeometry width="50" height="50" relative="1" as="geometry">
            <mxPoint x="689.5" y="-1900" as="sourcePoint" />
            <mxPoint x="689.5" y="-1810" as="targetPoint" />
          </mxGeometry>
        </mxCell>
        <mxCell id="kLNVyJrnfXW6X7ckvjcb-16" value="" style="endArrow=classic;html=1;rounded=0;exitX=0.5;exitY=1;exitDx=0;exitDy=0;entryX=0.5;entryY=0;entryDx=0;entryDy=0;" parent="1" edge="1">
          <mxGeometry width="50" height="50" relative="1" as="geometry">
            <mxPoint x="944.5" y="-1900" as="sourcePoint" />
            <mxPoint x="944.5" y="-1810" as="targetPoint" />
          </mxGeometry>
        </mxCell>
        <mxCell id="kLNVyJrnfXW6X7ckvjcb-19" value="&lt;font style=&quot;font-size: 28px;&quot;&gt;Reducer 1&lt;/font&gt;" style="rounded=0;whiteSpace=wrap;html=1;fillColor=#008a00;strokeColor=#005700;fontColor=#ffffff;" parent="1" vertex="1">
          <mxGeometry x="330" y="-1661" width="150" height="60" as="geometry" />
        </mxCell>
        <mxCell id="kLNVyJrnfXW6X7ckvjcb-20" value="&lt;font style=&quot;font-size: 28px;&quot;&gt;Reducer 2&lt;/font&gt;" style="rounded=0;whiteSpace=wrap;html=1;fillColor=#008a00;strokeColor=#005700;fontColor=#ffffff;" parent="1" vertex="1">
          <mxGeometry x="610" y="-1661" width="150" height="60" as="geometry" />
        </mxCell>
        <mxCell id="kLNVyJrnfXW6X7ckvjcb-21" value="&lt;font style=&quot;font-size: 28px;&quot;&gt;Reducer 3&lt;/font&gt;" style="rounded=0;whiteSpace=wrap;html=1;fillColor=#008a00;strokeColor=#005700;fontColor=#ffffff;" parent="1" vertex="1">
          <mxGeometry x="860" y="-1661" width="150" height="60" as="geometry" />
        </mxCell>
        <mxCell id="kLNVyJrnfXW6X7ckvjcb-22" value="" style="endArrow=classic;html=1;rounded=0;exitX=0.5;exitY=1;exitDx=0;exitDy=0;entryX=0.5;entryY=0;entryDx=0;entryDy=0;" parent="1" edge="1">
          <mxGeometry width="50" height="50" relative="1" as="geometry">
            <mxPoint x="404.5" y="-1751" as="sourcePoint" />
            <mxPoint x="404.5" y="-1661" as="targetPoint" />
          </mxGeometry>
        </mxCell>
        <mxCell id="kLNVyJrnfXW6X7ckvjcb-23" value="" style="endArrow=classic;html=1;rounded=0;exitX=0.5;exitY=1;exitDx=0;exitDy=0;entryX=0.5;entryY=0;entryDx=0;entryDy=0;" parent="1" edge="1">
          <mxGeometry width="50" height="50" relative="1" as="geometry">
            <mxPoint x="689.5" y="-1753" as="sourcePoint" />
            <mxPoint x="689.5" y="-1663" as="targetPoint" />
          </mxGeometry>
        </mxCell>
        <mxCell id="kLNVyJrnfXW6X7ckvjcb-24" value="" style="endArrow=classic;html=1;rounded=0;exitX=0.5;exitY=1;exitDx=0;exitDy=0;entryX=0.5;entryY=0;entryDx=0;entryDy=0;" parent="1" edge="1">
          <mxGeometry width="50" height="50" relative="1" as="geometry">
            <mxPoint x="944.5" y="-1750" as="sourcePoint" />
            <mxPoint x="944.5" y="-1660" as="targetPoint" />
          </mxGeometry>
        </mxCell>
        <mxCell id="kLNVyJrnfXW6X7ckvjcb-25" value="&lt;font style=&quot;font-size: 29px;&quot;&gt;CombineReducer&lt;/font&gt;" style="rounded=0;whiteSpace=wrap;html=1;" parent="1" vertex="1">
          <mxGeometry x="505" y="-1455" width="370" height="110" as="geometry" />
        </mxCell>
        <mxCell id="kLNVyJrnfXW6X7ckvjcb-26" value="" style="endArrow=classic;html=1;rounded=0;exitX=0.5;exitY=1;exitDx=0;exitDy=0;entryX=0.5;entryY=0;entryDx=0;entryDy=0;" parent="1" source="kLNVyJrnfXW6X7ckvjcb-19" target="kLNVyJrnfXW6X7ckvjcb-25" edge="1">
          <mxGeometry width="50" height="50" relative="1" as="geometry">
            <mxPoint x="700" y="-1500" as="sourcePoint" />
            <mxPoint x="750" y="-1550" as="targetPoint" />
          </mxGeometry>
        </mxCell>
        <mxCell id="kLNVyJrnfXW6X7ckvjcb-27" value="" style="endArrow=classic;html=1;rounded=0;" parent="1" edge="1">
          <mxGeometry width="50" height="50" relative="1" as="geometry">
            <mxPoint x="700" y="-1600" as="sourcePoint" />
            <mxPoint x="700" y="-1460" as="targetPoint" />
          </mxGeometry>
        </mxCell>
        <mxCell id="kLNVyJrnfXW6X7ckvjcb-28" value="" style="endArrow=classic;html=1;rounded=0;exitX=0.547;exitY=0.983;exitDx=0;exitDy=0;exitPerimeter=0;entryX=0.562;entryY=-0.018;entryDx=0;entryDy=0;entryPerimeter=0;" parent="1" source="kLNVyJrnfXW6X7ckvjcb-21" target="kLNVyJrnfXW6X7ckvjcb-25" edge="1">
          <mxGeometry width="50" height="50" relative="1" as="geometry">
            <mxPoint x="415" y="-1591" as="sourcePoint" />
            <mxPoint x="720" y="-1460" as="targetPoint" />
          </mxGeometry>
        </mxCell>
        <mxCell id="kLNVyJrnfXW6X7ckvjcb-29" value="" style="endArrow=classic;html=1;rounded=0;entryX=0;entryY=0.5;entryDx=0;entryDy=0;exitX=0.425;exitY=1.038;exitDx=0;exitDy=0;exitPerimeter=0;" parent="1" source="kLNVyJrnfXW6X7ckvjcb-30" target="kLNVyJrnfXW6X7ckvjcb-33" edge="1">
          <mxGeometry width="50" height="50" relative="1" as="geometry">
            <mxPoint x="100" y="-1400" as="sourcePoint" />
            <mxPoint x="380" y="-960" as="targetPoint" />
          </mxGeometry>
        </mxCell>
        <mxCell id="kLNVyJrnfXW6X7ckvjcb-30" value="&lt;font style=&quot;font-size: 21px;&quot;&gt;Redux&lt;/font&gt;" style="ellipse;whiteSpace=wrap;html=1;aspect=fixed;fillColor=#fa6800;fontColor=#000000;strokeColor=#C73500;" parent="1" vertex="1">
          <mxGeometry x="20" y="-1440" width="80" height="80" as="geometry" />
        </mxCell>
        <mxCell id="kLNVyJrnfXW6X7ckvjcb-31" value="&lt;font style=&quot;font-size: 29px;&quot;&gt;RootReducer&lt;/font&gt;" style="rounded=0;whiteSpace=wrap;html=1;" parent="1" vertex="1">
          <mxGeometry x="500" y="-1240" width="370" height="110" as="geometry" />
        </mxCell>
        <mxCell id="kLNVyJrnfXW6X7ckvjcb-32" value="" style="endArrow=classic;html=1;rounded=0;exitX=0.5;exitY=1;exitDx=0;exitDy=0;" parent="1" source="kLNVyJrnfXW6X7ckvjcb-25" edge="1">
          <mxGeometry width="50" height="50" relative="1" as="geometry">
            <mxPoint x="690" y="-1330" as="sourcePoint" />
            <mxPoint x="690" y="-1250" as="targetPoint" />
          </mxGeometry>
        </mxCell>
        <mxCell id="kLNVyJrnfXW6X7ckvjcb-33" value="&lt;font style=&quot;font-size: 29px;&quot;&gt;CreateStore(RootReducer,_,enhancers)&lt;br&gt;CreateStore(RootReducer, Middelwares)&lt;br&gt;&lt;/font&gt;" style="rounded=0;whiteSpace=wrap;html=1;" parent="1" vertex="1">
          <mxGeometry x="409" y="-1010" width="560" height="110" as="geometry" />
        </mxCell>
        <mxCell id="kLNVyJrnfXW6X7ckvjcb-34" value="" style="endArrow=classic;html=1;rounded=0;exitX=1;exitY=0.5;exitDx=0;exitDy=0;" parent="1" source="kLNVyJrnfXW6X7ckvjcb-30" edge="1">
          <mxGeometry width="50" height="50" relative="1" as="geometry">
            <mxPoint x="269" y="-1403" as="sourcePoint" />
            <mxPoint x="580" y="-1400" as="targetPoint" />
          </mxGeometry>
        </mxCell>
        <mxCell id="kLNVyJrnfXW6X7ckvjcb-36" value="" style="endArrow=classic;html=1;rounded=0;exitX=0.481;exitY=1.009;exitDx=0;exitDy=0;exitPerimeter=0;" parent="1" edge="1">
          <mxGeometry width="50" height="50" relative="1" as="geometry">
            <mxPoint x="687.9699999999998" y="-1129.01" as="sourcePoint" />
            <mxPoint x="688" y="-1020" as="targetPoint" />
          </mxGeometry>
        </mxCell>
        <mxCell id="kLNVyJrnfXW6X7ckvjcb-37" value="" style="endArrow=classic;html=1;rounded=0;exitX=0.481;exitY=1.009;exitDx=0;exitDy=0;exitPerimeter=0;" parent="1" edge="1">
          <mxGeometry width="50" height="50" relative="1" as="geometry">
            <mxPoint x="684.4999999999998" y="-900" as="sourcePoint" />
            <mxPoint x="684.53" y="-790.99" as="targetPoint" />
          </mxGeometry>
        </mxCell>
        <mxCell id="kLNVyJrnfXW6X7ckvjcb-38" value="&lt;font style=&quot;font-size: 21px;&quot;&gt;Store&lt;/font&gt;" style="ellipse;whiteSpace=wrap;html=1;aspect=fixed;fillColor=#e51400;fontColor=#ffffff;strokeColor=#B20000;" parent="1" vertex="1">
          <mxGeometry x="645" y="-790" width="80" height="80" as="geometry" />
        </mxCell>
        <mxCell id="kLNVyJrnfXW6X7ckvjcb-39" value="" style="endArrow=classic;html=1;rounded=0;entryX=0;entryY=0;entryDx=0;entryDy=0;exitX=1;exitY=0.5;exitDx=0;exitDy=0;" parent="1" source="kLNVyJrnfXW6X7ckvjcb-40" target="kLNVyJrnfXW6X7ckvjcb-38" edge="1">
          <mxGeometry width="50" height="50" relative="1" as="geometry">
            <mxPoint x="350" y="-700" as="sourcePoint" />
            <mxPoint x="630" y="-750" as="targetPoint" />
          </mxGeometry>
        </mxCell>
        <mxCell id="kLNVyJrnfXW6X7ckvjcb-40" value="&lt;font style=&quot;font-size: 28px;&quot;&gt;Store to share between components&lt;br&gt;it allow us to dispatch actions on the state&lt;/font&gt;" style="rounded=0;whiteSpace=wrap;html=1;" parent="1" vertex="1">
          <mxGeometry x="20" y="-970" width="290" height="160" as="geometry" />
        </mxCell>
        <mxCell id="LVGa69xpTI1mF76WPxVX-1" value="&lt;font style=&quot;&quot;&gt;&lt;span style=&quot;font-size: 27px;&quot;&gt;App&lt;/span&gt;&lt;br&gt;&lt;font style=&quot;font-size: 13px;&quot;&gt;(toDoList)&lt;/font&gt;&lt;br&gt;&lt;/font&gt;" style="ellipse;whiteSpace=wrap;html=1;fillColor=#008a00;fontColor=#ffffff;strokeColor=#005700;" parent="1" vertex="1">
          <mxGeometry x="584" y="623" width="120" height="80" as="geometry" />
        </mxCell>
        <mxCell id="LVGa69xpTI1mF76WPxVX-2" value="&lt;font style=&quot;&quot;&gt;&lt;span style=&quot;font-size: 27px;&quot;&gt;Header&lt;/span&gt;&lt;br&gt;&lt;/font&gt;" style="ellipse;whiteSpace=wrap;html=1;fillColor=#008a00;fontColor=#ffffff;strokeColor=#005700;" parent="1" vertex="1">
          <mxGeometry x="289" y="350" width="120" height="80" as="geometry" />
        </mxCell>
        <mxCell id="LVGa69xpTI1mF76WPxVX-3" value="&lt;font style=&quot;&quot;&gt;&lt;span style=&quot;font-size: 27px;&quot;&gt;ToDoList&lt;/span&gt;&lt;br&gt;&lt;/font&gt;" style="ellipse;whiteSpace=wrap;html=1;fillColor=#008a00;fontColor=#ffffff;strokeColor=#005700;" parent="1" vertex="1">
          <mxGeometry x="583" y="356" width="120" height="80" as="geometry" />
        </mxCell>
        <mxCell id="LVGa69xpTI1mF76WPxVX-15" style="edgeStyle=orthogonalEdgeStyle;rounded=0;orthogonalLoop=1;jettySize=auto;html=1;exitX=1;exitY=0.5;exitDx=0;exitDy=0;" parent="1" source="LVGa69xpTI1mF76WPxVX-4" edge="1">
          <mxGeometry relative="1" as="geometry">
            <mxPoint x="1799.5" y="-490" as="targetPoint" />
            <mxPoint x="1100" y="85" as="sourcePoint" />
            <Array as="points">
              <mxPoint x="1891" y="390" />
              <mxPoint x="1891" y="-490" />
            </Array>
          </mxGeometry>
        </mxCell>
        <mxCell id="LVGa69xpTI1mF76WPxVX-4" value="&lt;font style=&quot;&quot;&gt;&lt;span style=&quot;font-size: 27px;&quot;&gt;Footer&lt;/span&gt;&lt;br&gt;&lt;/font&gt;" style="ellipse;whiteSpace=wrap;html=1;fillColor=#008a00;fontColor=#ffffff;strokeColor=#005700;" parent="1" vertex="1">
          <mxGeometry x="940" y="350" width="120" height="80" as="geometry" />
        </mxCell>
        <mxCell id="LVGa69xpTI1mF76WPxVX-5" value="" style="endArrow=classic;html=1;rounded=0;exitX=0.5;exitY=0;exitDx=0;exitDy=0;entryX=0.5;entryY=1;entryDx=0;entryDy=0;" parent="1" source="LVGa69xpTI1mF76WPxVX-1" target="LVGa69xpTI1mF76WPxVX-2" edge="1">
          <mxGeometry width="50" height="50" relative="1" as="geometry">
            <mxPoint x="500" y="450" as="sourcePoint" />
            <mxPoint x="550" y="400" as="targetPoint" />
          </mxGeometry>
        </mxCell>
        <mxCell id="LVGa69xpTI1mF76WPxVX-6" value="" style="endArrow=classic;html=1;rounded=0;exitX=0.5;exitY=0;exitDx=0;exitDy=0;entryX=0.5;entryY=1;entryDx=0;entryDy=0;" parent="1" source="LVGa69xpTI1mF76WPxVX-1" target="LVGa69xpTI1mF76WPxVX-3" edge="1">
          <mxGeometry width="50" height="50" relative="1" as="geometry">
            <mxPoint x="650" y="592" as="sourcePoint" />
            <mxPoint x="359" y="440" as="targetPoint" />
          </mxGeometry>
        </mxCell>
        <mxCell id="LVGa69xpTI1mF76WPxVX-7" value="" style="endArrow=classic;html=1;rounded=0;" parent="1" edge="1">
          <mxGeometry width="50" height="50" relative="1" as="geometry">
            <mxPoint x="640" y="624" as="sourcePoint" />
            <mxPoint x="1000" y="430" as="targetPoint" />
          </mxGeometry>
        </mxCell>
        <mxCell id="LVGa69xpTI1mF76WPxVX-8" value="&lt;font style=&quot;&quot;&gt;&lt;span style=&quot;font-size: 27px;&quot;&gt;ListItem&lt;/span&gt;&lt;br&gt;&lt;/font&gt;" style="ellipse;whiteSpace=wrap;html=1;fillColor=#008a00;fontColor=#ffffff;strokeColor=#005700;" parent="1" vertex="1">
          <mxGeometry x="755" y="270" width="120" height="80" as="geometry" />
        </mxCell>
        <mxCell id="LVGa69xpTI1mF76WPxVX-9" value="" style="endArrow=classic;html=1;rounded=0;exitX=0.5;exitY=0;exitDx=0;exitDy=0;entryX=0;entryY=1;entryDx=0;entryDy=0;" parent="1" source="LVGa69xpTI1mF76WPxVX-3" target="LVGa69xpTI1mF76WPxVX-8" edge="1">
          <mxGeometry width="50" height="50" relative="1" as="geometry">
            <mxPoint x="524.5" y="467" as="sourcePoint" />
            <mxPoint x="523.5" y="280" as="targetPoint" />
          </mxGeometry>
        </mxCell>
        <mxCell id="LVGa69xpTI1mF76WPxVX-10" value="&lt;p style=&quot;line-height: 0%;&quot;&gt;&lt;font style=&quot;font-size: 65px;&quot;&gt;*&lt;/font&gt;&lt;/p&gt;" style="text;html=1;strokeColor=none;fillColor=none;align=center;verticalAlign=middle;whiteSpace=wrap;rounded=0;" parent="1" vertex="1">
          <mxGeometry x="710" y="334" width="60" height="20" as="geometry" />
        </mxCell>
        <mxCell id="LVGa69xpTI1mF76WPxVX-11" value="&lt;font style=&quot;&quot;&gt;&lt;span style=&quot;font-size: 27px;&quot;&gt;RemainTodo&lt;/span&gt;&lt;br&gt;&lt;/font&gt;" style="ellipse;whiteSpace=wrap;html=1;fillColor=#008a00;fontColor=#ffffff;strokeColor=#005700;" parent="1" vertex="1">
          <mxGeometry x="1540" y="-240" width="190" height="80" as="geometry" />
        </mxCell>
        <mxCell id="LVGa69xpTI1mF76WPxVX-12" value="&lt;font style=&quot;&quot;&gt;&lt;span style=&quot;font-size: 27px;&quot;&gt;StatusFilters&lt;/span&gt;&lt;br&gt;&lt;/font&gt;" style="ellipse;whiteSpace=wrap;html=1;fillColor=#008a00;fontColor=#ffffff;strokeColor=#005700;" parent="1" vertex="1">
          <mxGeometry x="1579" y="-380" width="180" height="80" as="geometry" />
        </mxCell>
        <mxCell id="LVGa69xpTI1mF76WPxVX-13" value="&lt;font style=&quot;&quot;&gt;&lt;span style=&quot;font-size: 27px;&quot;&gt;ColorsFilters&lt;/span&gt;&lt;br&gt;&lt;/font&gt;" style="ellipse;whiteSpace=wrap;html=1;fillColor=#008a00;fontColor=#ffffff;strokeColor=#005700;" parent="1" vertex="1">
          <mxGeometry x="1609" y="-530" width="190" height="80" as="geometry" />
        </mxCell>
        <mxCell id="LVGa69xpTI1mF76WPxVX-14" value="" style="endArrow=classic;html=1;rounded=0;" parent="1" edge="1">
          <mxGeometry width="50" height="50" relative="1" as="geometry">
            <mxPoint x="1889" y="-340.5" as="sourcePoint" />
            <mxPoint x="1759" y="-340.5" as="targetPoint" />
          </mxGeometry>
        </mxCell>
        <mxCell id="LVGa69xpTI1mF76WPxVX-17" value="" style="endArrow=classic;html=1;rounded=0;entryX=1;entryY=0.5;entryDx=0;entryDy=0;" parent="1" edge="1">
          <mxGeometry width="50" height="50" relative="1" as="geometry">
            <mxPoint x="1889" y="-200" as="sourcePoint" />
            <mxPoint x="1729" y="-200" as="targetPoint" />
          </mxGeometry>
        </mxCell>
        <mxCell id="LVGa69xpTI1mF76WPxVX-18" value="" style="endArrow=classic;html=1;rounded=0;exitX=0;exitY=0.5;exitDx=0;exitDy=0;entryX=0.5;entryY=0;entryDx=0;entryDy=0;" parent="1" source="kLNVyJrnfXW6X7ckvjcb-38" edge="1">
          <mxGeometry width="50" height="50" relative="1" as="geometry">
            <mxPoint x="535" y="-710" as="sourcePoint" />
            <mxPoint x="260" y="-520" as="targetPoint" />
            <Array as="points">
              <mxPoint x="260" y="-750" />
              <mxPoint x="260" y="-580" />
            </Array>
          </mxGeometry>
        </mxCell>
        <mxCell id="LVGa69xpTI1mF76WPxVX-19" value="&lt;font style=&quot;font-size: 22px;&quot;&gt;Provider&lt;/font&gt;" style="rounded=0;whiteSpace=wrap;html=1;" parent="1" vertex="1">
          <mxGeometry x="200" y="-518" width="120" height="60" as="geometry" />
        </mxCell>
        <mxCell id="LVGa69xpTI1mF76WPxVX-20" value="&lt;font style=&quot;font-size: 21px;&quot;&gt;React-Redux&lt;/font&gt;" style="ellipse;whiteSpace=wrap;html=1;aspect=fixed;fillColor=#fa6800;fontColor=#000000;strokeColor=#C73500;" parent="1" vertex="1">
          <mxGeometry x="20" y="-553" width="130" height="130" as="geometry" />
        </mxCell>
        <mxCell id="LVGa69xpTI1mF76WPxVX-21" value="" style="endArrow=classic;html=1;rounded=0;exitX=1;exitY=0.5;exitDx=0;exitDy=0;entryX=0;entryY=0.5;entryDx=0;entryDy=0;" parent="1" source="LVGa69xpTI1mF76WPxVX-20" target="LVGa69xpTI1mF76WPxVX-19" edge="1">
          <mxGeometry width="50" height="50" relative="1" as="geometry">
            <mxPoint x="80" y="-480" as="sourcePoint" />
            <mxPoint x="130" y="-530" as="targetPoint" />
          </mxGeometry>
        </mxCell>
        <mxCell id="LVGa69xpTI1mF76WPxVX-22" value="" style="endArrow=classic;html=1;rounded=0;exitX=0.5;exitY=1;exitDx=0;exitDy=0;entryX=0;entryY=0.5;entryDx=0;entryDy=0;" parent="1" source="LVGa69xpTI1mF76WPxVX-19" target="LVGa69xpTI1mF76WPxVX-1" edge="1">
          <mxGeometry width="50" height="50" relative="1" as="geometry">
            <mxPoint x="340" y="-380" as="sourcePoint" />
            <mxPoint x="90" y="671" as="targetPoint" />
            <Array as="points">
              <mxPoint x="260" y="-320" />
              <mxPoint x="80" y="-320" />
              <mxPoint x="80" y="663" />
            </Array>
          </mxGeometry>
        </mxCell>
        <mxCell id="LVGa69xpTI1mF76WPxVX-23" value="" style="endArrow=classic;html=1;rounded=0;exitX=0.5;exitY=0;exitDx=0;exitDy=0;entryX=0.3;entryY=1.019;entryDx=0;entryDy=0;entryPerimeter=0;" parent="1" source="LVGa69xpTI1mF76WPxVX-2" target="kLNVyJrnfXW6X7ckvjcb-38" edge="1">
          <mxGeometry width="50" height="50" relative="1" as="geometry">
            <mxPoint x="390" y="290" as="sourcePoint" />
            <mxPoint x="440" y="240" as="targetPoint" />
          </mxGeometry>
        </mxCell>
        <mxCell id="LVGa69xpTI1mF76WPxVX-24" value="&lt;font color=&quot;#ff6666&quot; style=&quot;font-size: 28px;&quot;&gt;dispatch(addToItem)&lt;/font&gt;" style="text;html=1;strokeColor=none;fillColor=none;align=center;verticalAlign=middle;whiteSpace=wrap;rounded=0;rotation=-75;" parent="1" vertex="1">
          <mxGeometry x="509" y="-380" width="60" height="30" as="geometry" />
        </mxCell>
        <mxCell id="LVGa69xpTI1mF76WPxVX-27" value="" style="endArrow=classic;html=1;rounded=0;entryX=0.263;entryY=0.025;entryDx=0;entryDy=0;entryPerimeter=0;exitX=0.5;exitY=1;exitDx=0;exitDy=0;" parent="1" source="kLNVyJrnfXW6X7ckvjcb-38" target="LVGa69xpTI1mF76WPxVX-3" edge="1">
          <mxGeometry width="50" height="50" relative="1" as="geometry">
            <mxPoint x="390" y="-500" as="sourcePoint" />
            <mxPoint x="440" y="-550" as="targetPoint" />
          </mxGeometry>
        </mxCell>
        <mxCell id="LVGa69xpTI1mF76WPxVX-28" value="&lt;font color=&quot;#006600&quot; style=&quot;font-size: 28px;&quot;&gt;useSelector(SelectToDoId)&lt;/font&gt;" style="text;html=1;strokeColor=none;fillColor=none;align=center;verticalAlign=middle;whiteSpace=wrap;rounded=0;rotation=-85;" parent="1" vertex="1">
          <mxGeometry x="608" y="-300" width="60" height="30" as="geometry" />
        </mxCell>
        <mxCell id="LVGa69xpTI1mF76WPxVX-29" value="" style="endArrow=classic;html=1;rounded=0;entryX=0.5;entryY=0;entryDx=0;entryDy=0;exitX=0.663;exitY=0.969;exitDx=0;exitDy=0;exitPerimeter=0;" parent="1" edge="1">
          <mxGeometry width="50" height="50" relative="1" as="geometry">
            <mxPoint x="690" y="-710" as="sourcePoint" />
            <mxPoint x="806.96" y="272.48" as="targetPoint" />
          </mxGeometry>
        </mxCell>
        <mxCell id="LVGa69xpTI1mF76WPxVX-30" value="&lt;font color=&quot;#006600&quot; style=&quot;font-size: 28px;&quot;&gt;useSelector(SelectToById)&lt;/font&gt;" style="text;html=1;strokeColor=none;fillColor=none;align=center;verticalAlign=middle;whiteSpace=wrap;rounded=0;rotation=-95;" parent="1" vertex="1">
          <mxGeometry x="708" y="-190" width="60" height="30" as="geometry" />
        </mxCell>
        <mxCell id="LVGa69xpTI1mF76WPxVX-33" value="" style="endArrow=classic;html=1;rounded=0;exitX=1;exitY=0;exitDx=0;exitDy=0;entryX=0.788;entryY=0.994;entryDx=0;entryDy=0;entryPerimeter=0;" parent="1" source="LVGa69xpTI1mF76WPxVX-8" target="kLNVyJrnfXW6X7ckvjcb-38" edge="1">
          <mxGeometry width="50" height="50" relative="1" as="geometry">
            <mxPoint x="650" y="634" as="sourcePoint" />
            <mxPoint x="1010" y="440" as="targetPoint" />
          </mxGeometry>
        </mxCell>
        <mxCell id="LVGa69xpTI1mF76WPxVX-34" value="&lt;font color=&quot;#ff6666&quot; style=&quot;font-size: 28px;&quot;&gt;dispatch(setCompleted)&lt;/font&gt;" style="text;html=1;strokeColor=none;fillColor=none;align=center;verticalAlign=middle;whiteSpace=wrap;rounded=0;rotation=-100;" parent="1" vertex="1">
          <mxGeometry x="760" y="-300" width="60" height="30" as="geometry" />
        </mxCell>
        <mxCell id="LVGa69xpTI1mF76WPxVX-35" value="" style="endArrow=classic;html=1;rounded=0;entryX=0.5;entryY=0;entryDx=0;entryDy=0;exitX=0.963;exitY=0.863;exitDx=0;exitDy=0;exitPerimeter=0;" parent="1" source="kLNVyJrnfXW6X7ckvjcb-38" target="LVGa69xpTI1mF76WPxVX-4" edge="1">
          <mxGeometry width="50" height="50" relative="1" as="geometry">
            <mxPoint x="700" y="-700" as="sourcePoint" />
            <mxPoint x="816.96" y="282.48" as="targetPoint" />
          </mxGeometry>
        </mxCell>
        <mxCell id="LVGa69xpTI1mF76WPxVX-36" value="&lt;font color=&quot;#006600&quot; style=&quot;font-size: 28px;&quot;&gt;useSelector(SelectRemainTodo)&lt;/font&gt;" style="text;html=1;strokeColor=none;fillColor=none;align=center;verticalAlign=middle;whiteSpace=wrap;rounded=0;rotation=-105;" parent="1" vertex="1">
          <mxGeometry x="857" y="-150" width="60" height="30" as="geometry" />
        </mxCell>
        <mxCell id="LVGa69xpTI1mF76WPxVX-37" value="&lt;font style=&quot;font-size: 29px;&quot;&gt;&lt;div style=&quot;font-family: Consolas, &amp;quot;Courier New&amp;quot;, monospace; font-size: 16px; line-height: 22px; background-color: rgb(255, 255, 255);&quot;&gt;ThunkMiddleware&lt;/div&gt;&lt;/font&gt;" style="rounded=0;whiteSpace=wrap;html=1;" parent="1" vertex="1">
          <mxGeometry x="1090" y="-1240" width="160" height="110" as="geometry" />
        </mxCell>
        <mxCell id="LVGa69xpTI1mF76WPxVX-38" value="" style="endArrow=classic;html=1;rounded=0;exitX=0.5;exitY=1;exitDx=0;exitDy=0;" parent="1" source="LVGa69xpTI1mF76WPxVX-37" edge="1">
          <mxGeometry width="50" height="50" relative="1" as="geometry">
            <mxPoint x="1130" y="-1120" as="sourcePoint" />
            <mxPoint x="930" y="-950" as="targetPoint" />
          </mxGeometry>
        </mxCell>
        <mxCell id="LVGa69xpTI1mF76WPxVX-39" value="&lt;font style=&quot;font-size: 21px;&quot;&gt;React-Redux&lt;/font&gt;" style="ellipse;whiteSpace=wrap;html=1;aspect=fixed;fillColor=#fa6800;fontColor=#000000;strokeColor=#C73500;" parent="1" vertex="1">
          <mxGeometry x="1430" y="-1250" width="130" height="130" as="geometry" />
        </mxCell>
        <mxCell id="LVGa69xpTI1mF76WPxVX-40" value="" style="endArrow=classic;html=1;rounded=0;exitX=0;exitY=0.5;exitDx=0;exitDy=0;entryX=1;entryY=0.5;entryDx=0;entryDy=0;" parent="1" source="LVGa69xpTI1mF76WPxVX-39" target="LVGa69xpTI1mF76WPxVX-37" edge="1">
          <mxGeometry width="50" height="50" relative="1" as="geometry">
            <mxPoint x="1560" y="-1210" as="sourcePoint" />
            <mxPoint x="1610" y="-1260" as="targetPoint" />
          </mxGeometry>
        </mxCell>
        <mxCell id="LVGa69xpTI1mF76WPxVX-41" value="&lt;font style=&quot;font-size: 18px;&quot;&gt;(to use fontions instead of actions to fetch data from server )&lt;/font&gt;" style="text;html=1;strokeColor=none;fillColor=none;align=center;verticalAlign=middle;whiteSpace=wrap;rounded=0;" parent="1" vertex="1">
          <mxGeometry x="1070" y="-1300" width="200" height="30" as="geometry" />
        </mxCell>
      </root>
    </mxGraphModel>
  </diagram>
</mxfile>
